<?xml version="1.0" encoding="UTF-8"?>
<svg width="156px" height="135px" viewBox="0 0 156 135" version="1.1" xmlns="http://www.w3.org/2000/svg" xmlns:xlink="http://www.w3.org/1999/xlink">
    <!-- Generator: sketchtool 49.3 (51167) - http://www.bohemiancoding.com/sketch -->
    <title>6D81C5A6-A19F-4B38-88F9-F3C42172D8FC</title>
    <desc>Created with sketchtool.</desc>
    <defs>
        <linearGradient x1="50%" y1="0%" x2="50%" y2="100%" id="linearGradient-1">
            <stop stop-color="#4FACF5" offset="0%"></stop>
            <stop stop-color="#4027E7" offset="100%"></stop>
        </linearGradient>
        <linearGradient x1="50%" y1="0%" x2="50%" y2="100%" id="linearGradient-2">
            <stop stop-color="#FF00A7" offset="0%"></stop>
            <stop stop-color="#FF006E" offset="100%"></stop>
        </linearGradient>
        <linearGradient x1="50%" y1="0%" x2="50%" y2="100%" id="linearGradient-3">
            <stop stop-color="#FFDA68" offset="0%"></stop>
            <stop stop-color="#FFAA68" offset="100%"></stop>
        </linearGradient>
        <path d="M49.3057851,54.5192308 L106.396694,54.5192308 C109.263098,54.5192308 111.586777,56.8439061 111.586777,59.7115385 L111.586777,98.6538462 C111.586777,101.521479 109.263098,103.846154 106.396694,103.846154 L49.3057851,103.846154 C46.4393816,103.846154 44.1157025,101.521479 44.1157025,98.6538462 L44.1157025,59.7115385 C44.1157025,56.8439061 46.4393816,54.5192308 49.3057851,54.5192308 Z" id="path-4"></path>
        <filter x="-14.8%" y="-12.2%" width="126.7%" height="136.5%" filterUnits="objectBoundingBox" id="filter-5">
            <feOffset dx="-1" dy="3" in="SourceAlpha" result="shadowOffsetOuter1"></feOffset>
            <feGaussianBlur stdDeviation="2.5" in="shadowOffsetOuter1" result="shadowBlurOuter1"></feGaussianBlur>
            <feColorMatrix values="0 0 0 0 0   0 0 0 0 0   0 0 0 0 0  0 0 0 0.3 0" type="matrix" in="shadowBlurOuter1"></feColorMatrix>
        </filter>
    </defs>
    <g id="Attending" stroke="none" stroke-width="1" fill="none" fill-rule="evenodd">
        <g id="Homepage" transform="translate(-260.000000, -1577.000000)">
            <g id="illu-lock" transform="translate(260.000000, 1577.000000)">
                <rect id="Rectangle-17" fill-opacity="0.15" fill="#4027E7" x="12.9752066" y="5.19230769" width="129.752066" height="129.807692" rx="64.8760331"></rect>
                <path d="M57.7620405,66.8509615 C61.5661511,55.7961887 50.6256768,27.2596154 32.4603876,27.2596154 C22.0802223,27.2596154 20.7827016,39.5913462 0.0223710459,40.2403846 C-0.410135841,44.5673077 5.42870713,48.4615385 17.5389,51.9230769 C9.32126912,54.9519231 6.50997435,57.1153846 9.10501567,58.4134615 C11.700057,59.7115385 17.1063931,61.2259615 25.3240239,62.9567308 C14.9438586,64.6875 13.8625914,67.5 22.0802223,71.3942308 C34.4066686,77.2355769 53.9579299,77.9057344 57.7620405,66.8509615 Z" id="Path-10" fill="url(#linearGradient-1)"></path>
                <path d="M155.07609,66.8509615 C158.880201,55.7961887 147.939726,27.2596154 129.774437,27.2596154 C119.394272,27.2596154 118.096751,39.5913462 97.3364206,40.2403846 C96.9039137,44.5673077 102.742757,48.4615385 114.85295,51.9230769 C106.635319,54.9519231 103.824024,57.1153846 106.419065,58.4134615 C109.014107,59.7115385 114.420443,61.2259615 122.638074,62.9567308 C112.257908,64.6875 111.176641,67.5 119.394272,71.3942308 C131.720718,77.2355769 151.271979,77.9057344 155.07609,66.8509615 Z" id="Path-10" fill="url(#linearGradient-1)" transform="translate(126.571616, 51.401384) scale(-1, 1) translate(-126.571616, -51.401384) "></path>
                <path d="M102.504132,24.6634615 C102.504132,26.8141858 100.761373,28.5576923 98.6115702,28.5576923 C96.4617676,28.5576923 94.7190083,26.8141858 94.7190083,24.6634615 C94.7190083,15.3436564 87.167051,7.78846154 77.8512397,7.78846154 C68.5354283,7.78846154 60.9834711,15.3436564 60.9834711,24.6634615 L60.9834711,56.4729683 C60.9834711,58.6236926 59.2407117,60.3671991 57.0909091,60.3671991 C54.9411065,60.3671991 53.1983471,58.6236926 53.1983471,56.4729683 L53.1983471,24.6634615 C53.1983471,11.0422079 64.2358231,0 77.8512397,0 C91.4666563,0 102.504132,11.0422079 102.504132,24.6634615 Z" id="Oval-9" fill="url(#linearGradient-2)" fill-rule="nonzero"></path>
                <g id="Rectangle-9">
                    <use fill="black" fill-opacity="1" filter="url(#filter-5)" xlink:href="#path-4"></use>
                    <use fill="url(#linearGradient-3)" fill-rule="evenodd" xlink:href="#path-4"></use>
                </g>
                <path d="M75.2561983,79.9407125 C72.9649004,78.9391727 71.3636364,76.6518564 71.3636364,73.9903846 C71.3636364,70.4058442 74.2682353,67.5 77.8512397,67.5 C81.434244,67.5 84.338843,70.4058442 84.338843,73.9903846 C84.338843,76.6518564 82.7375789,78.9391727 80.446281,79.9407125 L80.446281,86.9711538 C80.446281,88.40497 79.2844414,89.5673077 77.8512397,89.5673077 C76.4180379,89.5673077 75.2561983,88.40497 75.2561983,86.9711538 L75.2561983,79.9407125 Z" id="Combined-Shape" fill="#000000"></path>
            </g>
        </g>
    </g>
</svg>