<?xml version="1.0" encoding="UTF-8"?>
<svg width="143px" height="130px" viewBox="0 0 143 130" version="1.1" xmlns="http://www.w3.org/2000/svg" xmlns:xlink="http://www.w3.org/1999/xlink">
    <!-- Generator: sketchtool 49.3 (51167) - http://www.bohemiancoding.com/sketch -->
    <title>0B02D3EE-B2F3-43BE-9A93-1EB41D8D1271</title>
    <desc>Created with sketchtool.</desc>
    <defs>
        <linearGradient x1="50%" y1="0%" x2="50%" y2="100%" id="linearGradient-1">
            <stop stop-color="#4FACF5" offset="0%"></stop>
            <stop stop-color="#4027E7" offset="100%"></stop>
        </linearGradient>
        <linearGradient x1="50%" y1="0%" x2="50%" y2="100%" id="linearGradient-2">
            <stop stop-color="#FF00A7" offset="0%"></stop>
            <stop stop-color="#FF006E" offset="100%"></stop>
        </linearGradient>
        <linearGradient x1="50%" y1="0%" x2="50%" y2="100%" id="linearGradient-3">
            <stop stop-color="#FFDA68" offset="0%"></stop>
            <stop stop-color="#FFAA68" offset="100%"></stop>
        </linearGradient>
        <path d="M53.3,81.9 L89.7,81.9 C91.1359403,81.9 92.3,83.0640597 92.3,84.5 L92.3,115.7 C92.3,117.13594 91.1359403,118.3 89.7,118.3 L53.3,118.3 C51.8640597,118.3 50.7,117.13594 50.7,115.7 L50.7,84.5 C50.7,83.0640597 51.8640597,81.9 53.3,81.9 Z" id="path-4"></path>
        <filter x="-24.0%" y="-16.5%" width="143.3%" height="149.5%" filterUnits="objectBoundingBox" id="filter-5">
            <feOffset dx="-1" dy="3" in="SourceAlpha" result="shadowOffsetOuter1"></feOffset>
            <feGaussianBlur stdDeviation="2.5" in="shadowOffsetOuter1" result="shadowBlurOuter1"></feGaussianBlur>
            <feColorMatrix values="0 0 0 0 0   0 0 0 0 0   0 0 0 0 0  0 0 0 0.3 0" type="matrix" in="shadowBlurOuter1"></feColorMatrix>
        </filter>
    </defs>
    <g id="Attending" stroke="none" stroke-width="1" fill="none" fill-rule="evenodd">
        <g id="Homepage" transform="translate(-1031.000000, -1582.000000)">
            <g id="illu-drone" transform="translate(1031.000000, 1582.000000)">
                <rect id="Rectangle-17" fill-opacity="0.15" fill="#4027E7" x="6.5" y="0" width="130" height="130" rx="65"></rect>
                <ellipse id="Oval-7" fill="url(#linearGradient-1)" cx="26" cy="24.7" rx="26" ry="11.7"></ellipse>
                <ellipse id="Oval-7" fill="url(#linearGradient-1)" transform="translate(117.000000, 24.700000) scale(-1, 1) translate(-117.000000, -24.700000) " cx="117" cy="24.7" rx="26" ry="11.7"></ellipse>
                <polygon id="Rectangle-7" fill="#000000" points="83.2 44.2 113.1 23.4 114.4 29.9 83.2 48.1"></polygon>
                <polygon id="Rectangle-7" fill="#000000" transform="translate(44.200000, 35.750000) scale(-1, 1) translate(-44.200000, -35.750000) " points="28.6 44.2 58.5 23.4 59.8 29.9 28.6 48.1"></polygon>
                <polygon id="Rectangle-6" fill="#FF006E" points="111.8 23.4 122.2 23.4 119.6 29.9 114.4 29.9"></polygon>
                <polygon id="Rectangle-6-Copy" fill="#FF006E" points="20.8 23.4 31.2 23.4 28.6 29.9 23.4 29.9"></polygon>
                <ellipse id="Oval-7" fill="url(#linearGradient-1)" transform="translate(39.000000, 53.300000) scale(-1, 1) translate(-39.000000, -53.300000) " cx="39" cy="53.3" rx="16.9" ry="6.5"></ellipse>
                <rect id="Rectangle-7" fill="#000000" x="40.3" y="53.3" width="20.8" height="2.6"></rect>
                <polygon id="Rectangle-6-Copy-2" fill="#FF006E" points="36.4 53.3 41.6 53.3 40.3 56.55 37.7 56.55"></polygon>
                <ellipse id="Oval-7" fill="url(#linearGradient-1)" cx="104" cy="53.3" rx="16.9" ry="6.5"></ellipse>
                <rect id="Rectangle-7" fill="#000000" x="83.2" y="53.3" width="20.8" height="2.6"></rect>
                <polyline id="Path-9" stroke="#000000" stroke-width="1.3" points="55.9 84.5 68.9 59.8 74.1 59.8 87.1 84.5"></polyline>
                <polygon id="Rectangle-6-Copy-3" fill="#FF006E" points="101.4 53.3 106.6 53.3 105.3 56.55 102.7 56.55"></polygon>
                <path d="M68.9,33.8 L74.1,33.8 C79.8437614,33.8 84.5,38.4562386 84.5,44.2 L84.5,52 C84.5,57.7437614 79.8437614,62.4 74.1,62.4 L68.9,62.4 C63.1562386,62.4 58.5,57.7437614 58.5,52 L58.5,44.2 C58.5,38.4562386 63.1562386,33.8 68.9,33.8 Z" id="Rectangle-32" fill="url(#linearGradient-2)"></path>
                <circle id="Oval-8" stroke="#000000" stroke-width="2.6" fill="#00B8FF" cx="71.5" cy="44.2" r="3.9"></circle>
                <g id="Rectangle-33">
                    <use fill="black" fill-opacity="1" filter="url(#filter-5)" xlink:href="#path-4"></use>
                    <use fill="url(#linearGradient-3)" fill-rule="evenodd" xlink:href="#path-4"></use>
                </g>
                <rect id="Rectangle-8" fill-opacity="0.1" fill="#000000" x="67.6" y="81.9" width="7.8" height="36.4"></rect>
            </g>
        </g>
    </g>
</svg>